<svg width="17" height="18" viewBox="0 0 17 18" fill="none" xmlns="http://www.w3.org/2000/svg">
<path d="M8.25 0.75C8.4844 0.75 8.71287 0.826155 8.90039 0.966797L15.3164 5.7793C15.4509 5.88018 15.5605 6.01076 15.6357 6.16113C15.7109 6.31146 15.7499 6.47744 15.75 6.64551V15.3545C15.7499 15.6417 15.6357 15.917 15.4326 16.1201C15.2295 16.3232 14.9542 16.4374 14.667 16.4375H11.0918C11.0234 16.4375 10.9576 16.4105 10.9092 16.3623C10.8607 16.3139 10.833 16.2472 10.833 16.1787V11.6875C10.833 11.0024 10.5616 10.3448 10.0771 9.86035C9.59268 9.37588 8.93514 9.10449 8.25 9.10449C7.56486 9.10449 6.90732 9.37588 6.42285 9.86035C5.93838 10.3448 5.66699 11.0024 5.66699 11.6875V16.1787C5.66699 16.2472 5.63927 16.3139 5.59082 16.3623C5.54241 16.4105 5.47657 16.4375 5.4082 16.4375H1.83301C1.54581 16.4374 1.27047 16.3232 1.06738 16.1201C0.864295 15.917 0.750086 15.6417 0.75 15.3545V6.64551C0.750051 6.47744 0.789093 6.31146 0.864258 6.16113C0.939469 6.01076 1.04909 5.88018 1.18359 5.7793L7.59961 0.966797C7.78713 0.826156 8.0156 0.75 8.25 0.75Z" stroke="white" stroke-width="1.5"/>
</svg>