<svg width="20" height="21" viewBox="0 0 20 21" fill="none" xmlns="http://www.w3.org/2000/svg">
<path d="M11.7502 10.898L14.1202 8.528C14.4142 8.235 14.5602 8.088 14.6382 7.93C14.7882 7.63 14.7882 7.277 14.6382 6.976C14.5602 6.818 14.4142 6.672 14.1212 6.379C13.8282 6.086 13.6812 5.94 13.5242 5.862C13.376 5.7882 13.2127 5.74979 13.0472 5.74979C12.8817 5.74979 12.7184 5.7882 12.5702 5.862C12.4122 5.94 12.2652 6.086 11.9722 6.379L9.60221 8.75M11.7502 10.898L3.5282 19.121C3.2352 19.414 3.0882 19.56 2.9302 19.638C2.6302 19.788 2.2772 19.788 1.9762 19.638C1.8182 19.56 1.67221 19.414 1.3792 19.121C1.0862 18.828 0.940205 18.681 0.862205 18.524C0.788409 18.3758 0.75 18.2125 0.75 18.047C0.75 17.8815 0.788409 17.7182 0.862205 17.57C0.940205 17.412 1.0862 17.265 1.3792 16.972L9.60221 8.75M11.7502 10.898L9.60221 8.75M17.2502 0.75L17.1402 1.049C16.9942 1.44 16.9222 1.636 16.7802 1.779C16.6362 1.922 16.4402 1.995 16.0492 2.139L15.7502 2.25L16.0492 2.36C16.4402 2.505 16.6362 2.578 16.7792 2.72C16.9222 2.864 16.9942 3.06 17.1392 3.451L17.2502 3.75L17.3602 3.451C17.5062 3.06 17.5782 2.864 17.7202 2.721C17.8642 2.578 18.0602 2.505 18.4512 2.361L18.7502 2.25L18.4512 2.14C18.0602 1.995 17.8642 1.922 17.7212 1.78C17.5782 1.636 17.5062 1.44 17.3612 1.049L17.2502 0.75ZM17.2502 10.75L17.1402 11.049C16.9942 11.44 16.9222 11.636 16.7802 11.779C16.6362 11.922 16.4402 11.995 16.0492 12.139L15.7502 12.25L16.0492 12.36C16.4402 12.506 16.6362 12.578 16.7792 12.72C16.9222 12.864 16.9942 13.06 17.1392 13.451L17.2502 13.75L17.3602 13.451C17.5062 13.06 17.5782 12.864 17.7202 12.721C17.8642 12.578 18.0602 12.505 18.4512 12.361L18.7502 12.25L18.4512 12.14C18.0602 11.994 17.8642 11.922 17.7212 11.78C17.5782 11.636 17.5062 11.44 17.3612 11.049L17.2502 10.75ZM8.25021 0.75L8.14021 1.049C7.99421 1.44 7.9222 1.636 7.7802 1.779C7.6362 1.922 7.4402 1.995 7.0492 2.139L6.75021 2.25L7.0492 2.36C7.4402 2.505 7.63621 2.578 7.77921 2.72C7.92221 2.864 7.9952 3.06 8.1392 3.451L8.25021 3.75L8.3602 3.451C8.5062 3.06 8.57821 2.864 8.72021 2.721C8.86421 2.578 9.06021 2.505 9.45121 2.361L9.75021 2.25L9.45121 2.14C9.06021 1.995 8.8642 1.922 8.7212 1.78C8.5782 1.636 8.50521 1.44 8.36121 1.049L8.25021 0.75Z" stroke="#4B5563" stroke-width="1.5" stroke-linecap="round" stroke-linejoin="round"/>
</svg>
