<svg width="19" height="19" viewBox="0 0 19 19" fill="none" xmlns="http://www.w3.org/2000/svg">
<path d="M5.5 15.417C6.0987 15.417 6.58301 15.9013 6.58301 16.5C6.58301 17.0987 6.0987 17.583 5.5 17.583C4.90619 17.583 4.42578 17.1036 4.42578 16.5C4.42578 15.8964 4.90619 15.417 5.5 15.417ZM14.667 15.417C15.2655 15.4172 15.75 15.9014 15.75 16.5C15.75 17.0986 15.2655 17.5828 14.667 17.583C14.0732 17.583 13.5928 17.1036 13.5928 16.5C13.5928 15.8964 14.0732 15.417 14.667 15.417ZM2.51855 0.75L3.18652 2.15527L3.38965 2.58301H17.417C17.4609 2.58309 17.503 2.60086 17.5342 2.63184C17.5654 2.66309 17.583 2.7058 17.583 2.75C17.583 2.78159 17.575 2.804 17.5674 2.81738L17.5615 2.82812L14.2871 8.77246C14.0971 9.11079 13.7409 9.33286 13.3379 9.33301H6.06445L5.85059 9.72266L5.03027 11.2168C4.96657 11.3319 4.93088 11.4518 4.91699 11.5684L4.91016 11.6875L4.91504 11.7881C4.96506 12.283 5.38106 12.667 5.88965 12.667H15.75V13H5.5C4.90141 13 4.41717 12.5155 4.41699 11.917C4.41699 11.7283 4.46353 11.5498 4.55176 11.3848L5.78516 9.14844L5.9707 8.81152L5.80664 8.46484L2.51074 1.51172L2.30762 1.08301H0.75V0.75H2.51855Z" stroke="#6A717F" stroke-width="1.5"/>
</svg>
