<svg width="22" height="22" viewBox="0 0 22 22" fill="none" xmlns="http://www.w3.org/2000/svg">
<mask id="path-1-inside-1_2017_2673" fill="white">
<path d="M14.5475 13.6151C14.5468 13.7634 14.4877 13.9055 14.3829 14.0105C14.2782 14.1155 14.1362 14.175 13.9879 14.1761H8.01079C7.862 14.1761 7.71931 14.117 7.6141 14.0118C7.50889 13.9066 7.44979 13.7639 7.44979 13.6151C7.44979 13.4663 7.50889 13.3236 7.6141 13.2184C7.71931 13.1132 7.862 13.0541 8.01079 13.0541H13.9879C14.1365 13.0548 14.2787 13.1142 14.3838 13.2192C14.4888 13.3243 14.5482 13.4665 14.5489 13.6151M13.9893 10.0662H8.01079C7.86698 10.0734 7.73142 10.1355 7.63217 10.2398C7.53291 10.3441 7.47755 10.4826 7.47755 10.6265C7.47755 10.7705 7.53291 10.909 7.63217 11.0133C7.73142 11.1176 7.86698 11.1797 8.01079 11.1869H13.9879C14.1317 11.1797 14.2673 11.1176 14.3665 11.0133C14.4658 10.909 14.5211 10.7705 14.5211 10.6265C14.5211 10.4826 14.4658 10.3441 14.3665 10.2398C14.2673 10.1355 14.1331 10.0734 13.9893 10.0662ZM19.0314 3.90211V19.5922C19.0316 19.7639 18.9979 19.9339 18.9324 20.0925C18.8668 20.2512 18.7706 20.3953 18.6493 20.5168C18.528 20.6382 18.3839 20.7346 18.2254 20.8003C18.0668 20.866 17.8968 20.8999 17.7252 20.8999H4.27354C3.9271 20.8999 3.59485 20.7622 3.34988 20.5173C3.10491 20.2723 2.96729 19.94 2.96729 19.5936V3.90073C2.96711 3.72908 3.00076 3.55907 3.06632 3.40043C3.13189 3.24179 3.22808 3.09763 3.34939 2.97618C3.47071 2.85474 3.61477 2.7584 3.77334 2.69267C3.93191 2.62694 4.10188 2.59311 4.27354 2.59311H7.74541C8.14789 2.12418 8.64699 1.74781 9.20851 1.48977C9.77003 1.23174 10.3807 1.09814 10.9987 1.09814C11.6166 1.09814 12.2273 1.23174 12.7888 1.48977C13.3503 1.74781 13.8494 2.12418 14.2519 2.59311H17.7224C17.8941 2.59293 18.0641 2.62658 18.2227 2.69214C18.3814 2.75771 18.5255 2.8539 18.647 2.97521C18.7684 3.09653 18.8647 3.24059 18.9305 3.39916C18.9962 3.55773 19.03 3.7277 19.03 3.89936M7.82379 5.39398V5.57961H14.1735V5.39398C14.1823 4.9714 14.1067 4.55131 13.9511 4.15834C13.7954 3.76536 13.5629 3.4074 13.2672 3.10544C12.9714 2.80347 12.6184 2.56357 12.2287 2.39979C11.8391 2.23601 11.4206 2.15165 10.998 2.15165C10.5753 2.15165 10.1569 2.23601 9.76723 2.39979C9.37758 2.56357 9.02453 2.80347 8.72878 3.10544C8.43303 3.4074 8.20053 3.76536 8.04489 4.15834C7.88925 4.55131 7.81499 4.9714 7.82379 5.39398ZM17.908 3.89936C17.908 3.8748 17.9032 3.85048 17.8938 3.82779C17.8844 3.80511 17.8706 3.78449 17.8533 3.76713C17.8359 3.74976 17.8153 3.73599 17.7926 3.72659C17.7699 3.71719 17.7456 3.71236 17.721 3.71236H14.9504C15.1773 4.24311 15.2942 4.81511 15.2942 5.39398V6.14061C15.2934 6.28917 15.2341 6.43144 15.129 6.53649C15.024 6.64155 14.8817 6.70088 14.7332 6.70161H7.26416C7.1156 6.70088 6.97332 6.64155 6.86827 6.53649C6.76322 6.43144 6.70388 6.28917 6.70316 6.14061V5.39398C6.70316 4.81648 6.82004 4.24311 7.04691 3.71236H4.27354C4.24898 3.71236 4.22466 3.71719 4.20197 3.72659C4.17929 3.73599 4.15867 3.74976 4.14131 3.76713C4.12394 3.78449 4.11017 3.80511 4.10077 3.82779C4.09137 3.85048 4.08654 3.8748 4.08654 3.89936V19.5895C4.08654 19.6391 4.10624 19.6866 4.14131 19.7217C4.17638 19.7568 4.22394 19.7765 4.27354 19.7765H17.7224C17.772 19.7765 17.8196 19.7568 17.8546 19.7217C17.8897 19.6866 17.9094 19.6391 17.9094 19.5895L17.908 3.89936Z"/>
</mask>
<path d="M14.5475 13.6151C14.5468 13.7634 14.4877 13.9055 14.3829 14.0105C14.2782 14.1155 14.1362 14.175 13.9879 14.1761H8.01079C7.862 14.1761 7.71931 14.117 7.6141 14.0118C7.50889 13.9066 7.44979 13.7639 7.44979 13.6151C7.44979 13.4663 7.50889 13.3236 7.6141 13.2184C7.71931 13.1132 7.862 13.0541 8.01079 13.0541H13.9879C14.1365 13.0548 14.2787 13.1142 14.3838 13.2192C14.4888 13.3243 14.5482 13.4665 14.5489 13.6151M13.9893 10.0662H8.01079C7.86698 10.0734 7.73142 10.1355 7.63217 10.2398C7.53291 10.3441 7.47755 10.4826 7.47755 10.6265C7.47755 10.7705 7.53291 10.909 7.63217 11.0133C7.73142 11.1176 7.86698 11.1797 8.01079 11.1869H13.9879C14.1317 11.1797 14.2673 11.1176 14.3665 11.0133C14.4658 10.909 14.5211 10.7705 14.5211 10.6265C14.5211 10.4826 14.4658 10.3441 14.3665 10.2398C14.2673 10.1355 14.1331 10.0734 13.9893 10.0662ZM19.0314 3.90211V19.5922C19.0316 19.7639 18.9979 19.9339 18.9324 20.0925C18.8668 20.2512 18.7706 20.3953 18.6493 20.5168C18.528 20.6382 18.3839 20.7346 18.2254 20.8003C18.0668 20.866 17.8968 20.8999 17.7252 20.8999H4.27354C3.9271 20.8999 3.59485 20.7622 3.34988 20.5173C3.10491 20.2723 2.96729 19.94 2.96729 19.5936V3.90073C2.96711 3.72908 3.00076 3.55907 3.06632 3.40043C3.13189 3.24179 3.22808 3.09763 3.34939 2.97618C3.47071 2.85474 3.61477 2.7584 3.77334 2.69267C3.93191 2.62694 4.10188 2.59311 4.27354 2.59311H7.74541C8.14789 2.12418 8.64699 1.74781 9.20851 1.48977C9.77003 1.23174 10.3807 1.09814 10.9987 1.09814C11.6166 1.09814 12.2273 1.23174 12.7888 1.48977C13.3503 1.74781 13.8494 2.12418 14.2519 2.59311H17.7224C17.8941 2.59293 18.0641 2.62658 18.2227 2.69214C18.3814 2.75771 18.5255 2.8539 18.647 2.97521C18.7684 3.09653 18.8647 3.24059 18.9305 3.39916C18.9962 3.55773 19.03 3.7277 19.03 3.89936M7.82379 5.39398V5.57961H14.1735V5.39398C14.1823 4.9714 14.1067 4.55131 13.9511 4.15834C13.7954 3.76536 13.5629 3.4074 13.2672 3.10544C12.9714 2.80347 12.6184 2.56357 12.2287 2.39979C11.8391 2.23601 11.4206 2.15165 10.998 2.15165C10.5753 2.15165 10.1569 2.23601 9.76723 2.39979C9.37758 2.56357 9.02453 2.80347 8.72878 3.10544C8.43303 3.4074 8.20053 3.76536 8.04489 4.15834C7.88925 4.55131 7.81499 4.9714 7.82379 5.39398ZM17.908 3.89936C17.908 3.8748 17.9032 3.85048 17.8938 3.82779C17.8844 3.80511 17.8706 3.78449 17.8533 3.76713C17.8359 3.74976 17.8153 3.73599 17.7926 3.72659C17.7699 3.71719 17.7456 3.71236 17.721 3.71236H14.9504C15.1773 4.24311 15.2942 4.81511 15.2942 5.39398V6.14061C15.2934 6.28917 15.2341 6.43144 15.129 6.53649C15.024 6.64155 14.8817 6.70088 14.7332 6.70161H7.26416C7.1156 6.70088 6.97332 6.64155 6.86827 6.53649C6.76322 6.43144 6.70388 6.28917 6.70316 6.14061V5.39398C6.70316 4.81648 6.82004 4.24311 7.04691 3.71236H4.27354C4.24898 3.71236 4.22466 3.71719 4.20197 3.72659C4.17929 3.73599 4.15867 3.74976 4.14131 3.76713C4.12394 3.78449 4.11017 3.80511 4.10077 3.82779C4.09137 3.85048 4.08654 3.8748 4.08654 3.89936V19.5895C4.08654 19.6391 4.10624 19.6866 4.14131 19.7217C4.17638 19.7568 4.22394 19.7765 4.27354 19.7765H17.7224C17.772 19.7765 17.8196 19.7568 17.8546 19.7217C17.8897 19.6866 17.9094 19.6391 17.9094 19.5895L17.908 3.89936Z" fill="#6A717F"/>
<path d="M13.9879 14.1761V15.9762L14.0011 15.9761L13.9879 14.1761ZM13.9879 13.0541L13.9967 11.2541H13.9879V13.0541ZM13.9893 10.0662L14.0784 8.26844L14.0339 8.26623H13.9893V10.0662ZM8.01079 10.0662V8.26623H7.96622L7.9217 8.26844L8.01079 10.0662ZM8.01079 11.1869L7.9217 12.9846L7.96622 12.9869H8.01079V11.1869ZM13.9879 11.1869V12.9869H14.0325L14.077 12.9846L13.9879 11.1869ZM19.0314 19.5922H17.2314L17.2314 19.5941L19.0314 19.5922ZM18.9324 20.0925L17.2688 19.405L18.9324 20.0925ZM17.7252 20.8999L17.7252 19.0999H17.7252V20.8999ZM4.27354 20.8999V19.0999V20.8999ZM2.96729 19.5936H1.16729H2.96729ZM2.96729 3.90073H4.76729L4.76728 3.89884L2.96729 3.90073ZM4.27354 2.59311L4.27353 4.39311H4.27354V2.59311ZM7.74541 2.59311V4.39311H8.57256L9.11129 3.76545L7.74541 2.59311ZM10.9987 1.09814V2.89814V1.09814ZM14.2519 2.59311L12.886 3.76545L13.4248 4.39311H14.2519V2.59311ZM17.7224 2.59311V4.39311L17.7243 4.3931L17.7224 2.59311ZM18.9305 3.39916L17.2677 4.08842L18.9305 3.39916ZM7.82379 5.39398H9.62379V5.37525L9.6234 5.35653L7.82379 5.39398ZM7.82379 5.57961H6.02379V7.37961H7.82379V5.57961ZM14.1735 5.57961V7.37961H15.9735V5.57961H14.1735ZM14.1735 5.39398L12.3739 5.35653L12.3735 5.37525V5.39398H14.1735ZM10.998 2.15165V0.351648V2.15165ZM17.908 3.89936H16.108V3.89951L17.908 3.89936ZM14.9504 3.71236V1.91236H12.2234L13.2953 4.41986L14.9504 3.71236ZM15.2942 6.14061L17.0942 6.14936V6.14061H15.2942ZM14.7332 6.70161V8.50163L14.7419 8.50158L14.7332 6.70161ZM7.26416 6.70161L7.2554 8.50161H7.26416V6.70161ZM6.70316 6.14061H4.90314L4.90318 6.14936L6.70316 6.14061ZM7.04691 3.71236L8.70204 4.41986L9.7739 1.91236H7.04691V3.71236ZM4.27354 3.71236V5.51236V3.71236ZM4.08654 19.5895H2.28654H4.08654ZM4.27354 19.7765V21.5765V19.7765ZM17.9094 19.5895H19.7094V19.5893L17.9094 19.5895ZM14.5475 13.6151L12.7476 13.6064C12.7491 13.2811 12.8788 12.9696 13.1086 12.7393L14.3829 14.0105L15.6573 15.2817C16.0965 14.8414 16.3445 14.2458 16.3475 13.6238L14.5475 13.6151ZM14.3829 14.0105L13.1086 12.7393C13.3383 12.509 13.6495 12.3785 13.9748 12.3762L13.9879 14.1761L14.0011 15.9761C14.623 15.9715 15.218 15.722 15.6573 15.2817L14.3829 14.0105ZM13.9879 14.1761V12.3761H8.01079V14.1761V15.9761H13.9879V14.1761ZM8.01079 14.1761V12.3761C8.3394 12.3761 8.65454 12.5066 8.88689 12.739L7.6141 14.0118L6.34131 15.2846C6.78408 15.7274 7.3846 15.9761 8.01079 15.9761V14.1761ZM7.6141 14.0118L8.88689 12.739C9.11925 12.9714 9.24979 13.2865 9.24979 13.6151H7.44979H5.64979C5.64979 14.2413 5.89853 14.8418 6.34131 15.2846L7.6141 14.0118ZM7.44979 13.6151H9.24979C9.24979 13.9437 9.11925 14.2589 8.88689 14.4912L7.6141 13.2184L6.34131 11.9456C5.89853 12.3884 5.64979 12.9889 5.64979 13.6151H7.44979ZM7.6141 13.2184L8.88689 14.4912C8.65453 14.7236 8.33938 14.8541 8.01079 14.8541V13.0541V11.2541C7.38461 11.2541 6.78408 11.5029 6.34131 11.9456L7.6141 13.2184ZM8.01079 13.0541V14.8541H13.9879V13.0541V11.2541H8.01079V13.0541ZM13.9879 13.0541L13.9792 14.8541C13.6534 14.8525 13.3414 14.7224 13.111 14.492L14.3838 13.2192L15.6566 11.9464C15.2161 11.506 14.6196 11.2572 13.9967 11.2541L13.9879 13.0541ZM14.3838 13.2192L13.111 14.492C12.8806 14.2616 12.7505 13.9497 12.7489 13.6239L14.5489 13.6151L16.3489 13.6063C16.3459 12.9834 16.0971 12.3869 15.6566 11.9464L14.3838 13.2192ZM13.9893 10.0662V8.26623H8.01079V10.0662V11.8662H13.9893V10.0662ZM8.01079 10.0662L7.9217 8.26844C7.3165 8.29843 6.74599 8.55996 6.32826 8.9989L7.63217 10.2398L8.93607 11.4807C8.71686 11.711 8.41747 11.8483 8.09987 11.864L8.01079 10.0662ZM7.63217 10.2398L6.32826 8.9989C5.91052 9.43785 5.67755 10.0206 5.67755 10.6265H7.47755H9.27755C9.27755 10.9445 9.15529 11.2503 8.93607 11.4807L7.63217 10.2398ZM7.47755 10.6265H5.67755C5.67755 11.2325 5.91052 11.8152 6.32826 12.2542L7.63217 11.0133L8.93607 9.77239C9.15529 10.0027 9.27755 10.3086 9.27755 10.6265H7.47755ZM7.63217 11.0133L6.32826 12.2542C6.74599 12.6931 7.3165 12.9547 7.9217 12.9846L8.01079 11.1869L8.09987 9.38906C8.41747 9.4048 8.71686 9.54204 8.93607 9.77239L7.63217 11.0133ZM8.01079 11.1869V12.9869H13.9879V11.1869V9.38686H8.01079V11.1869ZM13.9879 11.1869L14.077 12.9846C14.6822 12.9547 15.2527 12.6931 15.6704 12.2542L14.3665 11.0133L13.0626 9.77239C13.2818 9.54205 13.5812 9.4048 13.8988 9.38906L13.9879 11.1869ZM14.3665 11.0133L15.6704 12.2542C16.0882 11.8152 16.3211 11.2325 16.3211 10.6265H14.5211H12.7211C12.7211 10.3086 12.8434 10.0027 13.0626 9.77239L14.3665 11.0133ZM14.5211 10.6265H16.3211C16.3211 10.0206 16.0882 9.43784 15.6704 8.9989L14.3665 10.2398L13.0626 11.4807C12.8434 11.2503 12.7211 10.9445 12.7211 10.6265H14.5211ZM14.3665 10.2398L15.6704 8.9989C15.2563 8.56378 14.6888 8.29869 14.0784 8.26844L13.9893 10.0662L13.9002 11.864C13.5774 11.848 13.2782 11.7072 13.0626 11.4807L14.3665 10.2398ZM19.0314 3.90211H17.2314V19.5922H19.0314H20.8314V3.90211H19.0314ZM19.0314 19.5922L17.2314 19.5941C17.2313 19.5292 17.2441 19.465 17.2688 19.405L18.9324 20.0925L20.5959 20.7801C20.7518 20.4028 20.8318 19.9985 20.8314 19.5903L19.0314 19.5922ZM18.9324 20.0925L17.2688 19.405C17.2936 19.3451 17.33 19.2906 17.3758 19.2447L18.6493 20.5168L19.9228 21.7889C20.2113 21.5001 20.44 21.1573 20.5959 20.7801L18.9324 20.0925ZM18.6493 20.5168L17.3758 19.2447C17.4217 19.1988 17.4762 19.1623 17.5361 19.1375L18.2254 20.8003L18.9146 22.4631C19.2917 22.3068 19.6343 22.0777 19.9228 21.7889L18.6493 20.5168ZM18.2254 20.8003L17.5361 19.1375C17.596 19.1126 17.6603 19.0999 17.7252 19.0999L17.7252 20.8999L17.7252 22.6999C18.1333 22.6999 18.5375 22.6194 18.9146 22.4631L18.2254 20.8003ZM17.7252 20.8999V19.0999H4.27354V20.8999V22.6999H17.7252V20.8999ZM4.27354 20.8999V19.0999C4.40449 19.0999 4.53007 19.1519 4.62267 19.2445L3.34988 20.5173L2.07709 21.7901C2.65962 22.3726 3.44971 22.6999 4.27354 22.6999V20.8999ZM3.34988 20.5173L4.62267 19.2445C4.71527 19.3371 4.76729 19.4627 4.76729 19.5936H2.96729H1.16729C1.16729 20.4174 1.49455 21.2075 2.07709 21.7901L3.34988 20.5173ZM2.96729 19.5936H4.76729V3.90073H2.96729H1.16729V19.5936H2.96729ZM2.96729 3.90073L4.76728 3.89884C4.76735 3.96372 4.75463 4.02798 4.72985 4.08795L3.06632 3.40043L1.4028 2.71291C1.24689 3.09016 1.16686 3.49443 1.16729 3.90263L2.96729 3.90073ZM3.06632 3.40043L4.72985 4.08795C4.70507 4.14791 4.66871 4.2024 4.62285 4.24831L3.34939 2.97618L2.07593 1.70406C1.78745 1.99285 1.55871 2.33567 1.4028 2.71291L3.06632 3.40043ZM3.34939 2.97618L4.62285 4.24831C4.577 4.29421 4.52254 4.33063 4.4626 4.35547L3.77334 2.69267L3.08407 1.02987C2.70699 1.18618 2.36441 1.41527 2.07593 1.70406L3.34939 2.97618ZM3.77334 2.69267L4.4626 4.35547C4.40267 4.38032 4.33842 4.39311 4.27353 4.39311L4.27354 2.59311L4.27354 0.793106C3.86534 0.793106 3.46115 0.873559 3.08407 1.02987L3.77334 2.69267ZM4.27354 2.59311V4.39311H7.74541V2.59311V0.793106H4.27354V2.59311ZM7.74541 2.59311L9.11129 3.76545C9.34479 3.4934 9.63434 3.27505 9.9601 3.12535L9.20851 1.48977L8.45692 -0.145804C7.65965 0.220565 6.951 0.75496 6.37953 1.42076L7.74541 2.59311ZM9.20851 1.48977L9.9601 3.12535C10.2859 2.97565 10.6401 2.89814 10.9987 2.89814V1.09814V-0.701855C10.1212 -0.701855 9.25419 -0.512172 8.45692 -0.145804L9.20851 1.48977ZM10.9987 1.09814V2.89814C11.3572 2.89814 11.7115 2.97565 12.0372 3.12535L12.7888 1.48977L13.5404 -0.145804C12.7431 -0.512172 11.8761 -0.701855 10.9987 -0.701855V1.09814ZM12.7888 1.48977L12.0372 3.12535C12.363 3.27505 12.6525 3.4934 12.886 3.76545L14.2519 2.59311L15.6178 1.42076C15.0463 0.75496 14.3377 0.220565 13.5404 -0.145804L12.7888 1.48977ZM14.2519 2.59311V4.39311H17.7224V2.59311V0.793106H14.2519V2.59311ZM17.7224 2.59311L17.7243 4.3931C17.6594 4.39317 17.5952 4.38045 17.5352 4.35567L18.2227 2.69214L18.9102 1.02862C18.533 0.872705 18.1287 0.792677 17.7205 0.793107L17.7224 2.59311ZM18.2227 2.69214L17.5352 4.35567C17.4752 4.33089 17.4207 4.29453 17.3748 4.24867L18.647 2.97521L19.9191 1.70175C19.6303 1.41327 19.2875 1.18453 18.9102 1.02862L18.2227 2.69214ZM18.647 2.97521L17.3748 4.24867C17.3289 4.20282 17.2925 4.14836 17.2677 4.08842L18.9305 3.39916L20.5933 2.70989C20.437 2.33281 20.2079 1.99023 19.9191 1.70175L18.647 2.97521ZM18.9305 3.39916L17.2677 4.08842C17.2428 4.02849 17.23 3.96424 17.23 3.89935L19.03 3.89936L20.83 3.89936C20.83 3.49116 20.7496 3.08697 20.5933 2.70989L18.9305 3.39916ZM7.82379 5.39398H6.02379V5.57961H7.82379H9.62379V5.39398H7.82379ZM7.82379 5.57961V7.37961H14.1735V5.57961V3.77961H7.82379V5.57961ZM14.1735 5.57961H15.9735V5.39398H14.1735H12.3735V5.57961H14.1735ZM14.1735 5.39398L15.9731 5.43143C15.9869 4.76937 15.8684 4.11122 15.6246 3.49554L13.9511 4.15834L12.2775 4.82113C12.345 4.99141 12.3777 5.17343 12.3739 5.35653L14.1735 5.39398ZM13.9511 4.15834L15.6246 3.49554C15.3807 2.87986 15.0165 2.31905 14.5531 1.84595L13.2672 3.10544L11.9812 4.36492C12.1093 4.49576 12.2101 4.65086 12.2775 4.82113L13.9511 4.15834ZM13.2672 3.10544L14.5531 1.84595C14.0898 1.37286 13.5367 0.997004 12.9262 0.740411L12.2287 2.39979L11.5312 4.05917C11.7001 4.13013 11.8531 4.23408 11.9812 4.36492L13.2672 3.10544ZM12.2287 2.39979L12.9262 0.740411C12.3157 0.483818 11.6602 0.351648 10.998 0.351648V2.15165V3.95165C11.1811 3.95165 11.3624 3.9882 11.5312 4.05917L12.2287 2.39979ZM10.998 2.15165V0.351648C10.3358 0.351648 9.68023 0.483818 9.06976 0.740411L9.76723 2.39979L10.4647 4.05917C10.6335 3.9882 10.8148 3.95165 10.998 3.95165V2.15165ZM9.76723 2.39979L9.06976 0.740411C8.45929 0.997004 7.90617 1.37286 7.44282 1.84595L8.72878 3.10544L10.0147 4.36492C10.1429 4.23408 10.2959 4.13013 10.4647 4.05917L9.76723 2.39979ZM8.72878 3.10544L7.44282 1.84595C6.97947 2.31905 6.6152 2.87987 6.37136 3.49554L8.04489 4.15834L9.71842 4.82113C9.78586 4.65086 9.8866 4.49576 10.0147 4.36492L8.72878 3.10544ZM8.04489 4.15834L6.37136 3.49554C6.12608 4.11487 6.01048 4.77333 6.02418 5.43143L7.82379 5.39398L9.6234 5.35653C9.6195 5.16947 9.65243 4.98776 9.71842 4.82113L8.04489 4.15834ZM17.908 3.89936H19.708C19.708 3.63843 19.6566 3.38005 19.5568 3.13896L17.8938 3.82779L16.2308 4.51662C16.1498 4.32091 16.108 4.11116 16.108 3.89936H17.908ZM17.8938 3.82779L19.5568 3.13896C19.4569 2.89785 19.3105 2.67881 19.1261 2.49433L17.8533 3.76713L16.5805 5.03992C16.4307 4.89017 16.3119 4.71237 16.2308 4.51662L17.8938 3.82779ZM17.8533 3.76713L19.1261 2.49433C18.9416 2.30985 18.7225 2.16348 18.4814 2.06361L17.7926 3.72659L17.1038 5.38957C16.908 5.3085 16.7302 5.18968 16.5805 5.03992L17.8533 3.76713ZM17.7926 3.72659L18.4814 2.06361C18.2403 1.96375 17.982 1.91236 17.721 1.91236V3.71236V5.51236C17.5092 5.51236 17.2995 5.47064 17.1038 5.38957L17.7926 3.72659ZM17.721 3.71236V1.91236H14.9504V3.71236V5.51236H17.721V3.71236ZM14.9504 3.71236L13.2953 4.41986C13.4262 4.72617 13.4942 5.05742 13.4942 5.39398H15.2942H17.0942C17.0942 4.57279 16.9283 3.76004 16.6055 3.00485L14.9504 3.71236ZM15.2942 5.39398H13.4942V6.14061H15.2942H17.0942V5.39398H15.2942ZM15.2942 6.14061L13.4942 6.13185C13.4958 5.80605 13.6259 5.49407 13.8563 5.2637L15.129 6.53649L16.4018 7.80929C16.8423 7.36882 17.0911 6.77228 17.0941 6.14936L15.2942 6.14061ZM15.129 6.53649L13.8563 5.2637C14.0866 5.03334 14.3986 4.90321 14.7244 4.90163L14.7332 6.70161L14.7419 8.50158C15.3648 8.49855 15.9614 8.24975 16.4018 7.80929L15.129 6.53649ZM14.7332 6.70161V4.90161H7.26416V6.70161V8.50161H14.7332V6.70161ZM7.26416 6.70161L7.27292 4.90163C7.59871 4.90321 7.9107 5.03333 8.14106 5.2637L6.86827 6.53649L5.59548 7.80929C6.03595 8.24976 6.63249 8.49855 7.2554 8.50158L7.26416 6.70161ZM6.86827 6.53649L8.14106 5.2637C8.37143 5.49407 8.50155 5.80606 8.50314 6.13185L6.70316 6.14061L4.90318 6.14936C4.90621 6.77228 5.15501 7.36881 5.59548 7.80929L6.86827 6.53649ZM6.70316 6.14061H8.50316V5.39398H6.70316H4.90316V6.14061H6.70316ZM6.70316 5.39398H8.50316C8.50316 5.0585 8.57121 4.7259 8.70204 4.41986L7.04691 3.71236L5.39178 3.00485C5.06886 3.76031 4.90316 4.57446 4.90316 5.39398H6.70316ZM7.04691 3.71236V1.91236H4.27354V3.71236V5.51236H7.04691V3.71236ZM4.27354 3.71236V1.91236C4.0126 1.91236 3.75422 1.96375 3.51314 2.06361L4.20197 3.72659L4.8908 5.38957C4.69511 5.47063 4.48536 5.51236 4.27354 5.51236V3.71236ZM4.20197 3.72659L3.51314 2.06361C3.27207 2.16346 3.05303 2.30982 2.86851 2.49433L4.14131 3.76713L5.4141 5.03992C5.26432 5.1897 5.0865 5.30851 4.8908 5.38957L4.20197 3.72659ZM4.14131 3.76713L2.86851 2.49433C2.684 2.67885 2.53764 2.8979 2.43779 3.13896L4.10077 3.82779L5.76375 4.51662C5.6827 4.71232 5.56388 4.89013 5.4141 5.03992L4.14131 3.76713ZM4.10077 3.82779L2.43779 3.13896C2.33794 3.38002 2.28654 3.6384 2.28654 3.89936H4.08654H5.88654C5.88654 4.1112 5.84481 4.32094 5.76375 4.51662L4.10077 3.82779ZM4.08654 3.89936H2.28654V19.5895H4.08654H5.88654V3.89936H4.08654ZM4.08654 19.5895H2.28654C2.28654 20.1165 2.49588 20.6219 2.86851 20.9945L4.14131 19.7217L5.4141 18.4489C5.71659 18.7514 5.88654 19.1617 5.88654 19.5895H4.08654ZM4.14131 19.7217L2.86851 20.9945C3.24114 21.3671 3.74653 21.5765 4.27354 21.5765V19.7765V17.9765C4.70135 17.9765 5.11161 18.1464 5.4141 18.4489L4.14131 19.7217ZM4.27354 19.7765V21.5765H17.7224V19.7765V17.9765H4.27354V19.7765ZM17.7224 19.7765V21.5765C18.2494 21.5765 18.7548 21.3671 19.1274 20.9945L17.8546 19.7217L16.5818 18.4489C16.8843 18.1464 17.2946 17.9765 17.7224 17.9765V19.7765ZM17.8546 19.7217L19.1274 20.9945C19.5001 20.6219 19.7094 20.1164 19.7094 19.5895H17.9094H16.1094C16.1094 19.1617 16.2793 18.7514 16.5818 18.4489L17.8546 19.7217ZM17.9094 19.5895L19.7094 19.5893L19.708 3.8992L17.908 3.89936L16.108 3.89951L16.1094 19.5896L17.9094 19.5895Z" fill="#6A717F" mask="url(#path-1-inside-1_2017_2673)"/>
</svg>
