<svg width="24" height="24" viewBox="0 0 24 24" fill="none" xmlns="http://www.w3.org/2000/svg">
<path d="M15.8 15.5732V6.53867C15.8 6.03476 15.5998 5.55149 15.2435 5.19517C14.8872 4.83885 14.4039 4.63867 13.9 4.63867H4.4C3.89609 4.63867 3.41282 4.83885 3.0565 5.19517C2.70018 5.55149 2.5 6.03476 2.5 6.53867V15.0887C2.5 15.3406 2.60009 15.5823 2.77825 15.7604C2.95641 15.9386 3.19804 16.0387 3.45 16.0387H4.1245C4.30968 15.6158 4.61407 15.2561 5.00044 15.0036C5.3868 14.751 5.8384 14.6165 6.3 14.6165C6.7616 14.6165 7.2132 14.751 7.59956 15.0036C7.98593 15.2561 8.29032 15.6158 8.4755 16.0387H15.5245C15.5942 15.8708 15.686 15.7157 15.8 15.5732ZM15.8 15.5732C16.0469 15.2383 16.3777 14.9744 16.7592 14.8083C17.1406 14.6421 17.5591 14.5794 17.9724 14.6266C18.3858 14.6739 18.7794 14.8293 19.1135 15.0772C19.4477 15.3251 19.7105 15.6567 19.8755 16.0387H21.5V13.2932C21.5004 12.6038 21.3132 11.9273 20.9585 11.3362L19.79 9.38867L18.9255 7.95417C18.8414 7.81236 18.7219 7.69487 18.5786 7.61325C18.4354 7.53163 18.2734 7.4887 18.1085 7.48867H15.8V15.5732Z" stroke="black" stroke-width="1.425" stroke-linecap="round" stroke-linejoin="round"/>
<path d="M11.05 11.2885H6.30005M11.05 8.43848H6.30005M8.67505 16.9885C8.67546 17.3418 8.59705 17.6907 8.44552 18.0099C8.29398 18.3291 8.07315 18.6104 7.79911 18.8334C7.52508 19.0564 7.20474 19.2155 6.86144 19.299C6.51814 19.3825 6.16054 19.3884 5.81469 19.3161C5.46884 19.2439 5.14345 19.0955 4.86224 18.8816C4.58103 18.6677 4.35109 18.3938 4.18917 18.0798C4.02724 17.7657 3.93742 17.4195 3.92624 17.0664C3.91506 16.7133 3.98281 16.3621 4.12455 16.0385C4.34324 15.5391 4.72706 15.1302 5.21157 14.8804C5.69607 14.6305 6.25178 14.555 6.78541 14.6664C7.31904 14.7778 7.7981 15.0694 8.14218 15.4922C8.48625 15.915 8.67441 16.4433 8.67505 16.9885ZM20.075 16.9885C20.0755 17.3418 19.997 17.6907 19.8455 18.0099C19.694 18.3291 19.4732 18.6104 19.1991 18.8334C18.9251 19.0564 18.6047 19.2155 18.2614 19.299C17.9181 19.3825 17.5605 19.3884 17.2147 19.3161C16.8688 19.2439 16.5434 19.0955 16.2622 18.8816C15.981 18.6677 15.7511 18.3938 15.5892 18.0798C15.4272 17.7657 15.3374 17.4195 15.3262 17.0664C15.3151 16.7133 15.3828 16.3621 15.5245 16.0385C15.5942 15.8706 15.686 15.7155 15.8 15.573C16.0469 15.2381 16.3778 14.9742 16.7592 14.8081C17.1406 14.6419 17.5591 14.5792 17.9725 14.6264C18.3859 14.6737 18.7795 14.8291 19.1136 15.077C19.4477 15.3249 19.7105 15.6565 19.8755 16.0385C20.0085 16.3377 20.0769 16.6617 20.075 16.9885Z" stroke="black" stroke-width="1.425" stroke-linecap="round" stroke-linejoin="round"/>
</svg>
